<?xml version="1.0" encoding="UTF-8" standalone="no"?>
<svg
   xmlns:dc="http://purl.org/dc/elements/1.1/"
   xmlns:cc="http://creativecommons.org/ns#"
   xmlns:rdf="http://www.w3.org/1999/02/22-rdf-syntax-ns#"
   xmlns:svg="http://www.w3.org/2000/svg"
   xmlns="http://www.w3.org/2000/svg"
   xmlns:sodipodi="http://sodipodi.sourceforge.net/DTD/sodipodi-0.dtd"
   xmlns:inkscape="http://www.inkscape.org/namespaces/inkscape"
   version="1.1"
   width="64"
   height="32"
   x="0"
   y="0"
   viewBox="0 0 529.57798 529.57801"
   xml:space="preserve"
   class=""
   id="svg42"
   sodipodi:docname="right-arrow_fat.svg"
   inkscape:version="1.0.2 (e86c870879, 2021-01-15)"
   inkscape:export-filename="C:\Users\ricm\Downloads\right-arrow.png"
   inkscape:export-xdpi="96"
   inkscape:export-ydpi="96"><metadata
     id="metadata48"><rdf:RDF><cc:Work
         rdf:about=""><dc:format>image/svg+xml</dc:format><dc:type
           rdf:resource="http://purl.org/dc/dcmitype/StillImage" /><dc:title /></cc:Work></rdf:RDF></metadata><defs
     id="defs46"><inkscape:path-effect
       effect="powerstroke"
       id="path-effect1517"
       is_visible="true"
       lpeversion="1"
       offset_points="0.51159593,0.30302695"
       sort_points="true"
       interpolator_type="CentripetalCatmullRom"
       interpolator_beta="0.75"
       start_linecap_type="round"
       linejoin_type="spiro"
       miter_limit="4"
       scale_width="1"
       end_linecap_type="round" /><inkscape:path-effect
       effect="simplify"
       id="path-effect1515"
       is_visible="true"
       lpeversion="1"
       steps="1"
       threshold="0.0033306899"
       smooth_angles="0"
       helper_size="0"
       simplify_individual_paths="false"
       simplify_just_coalesce="false"
       step="1" /><inkscape:path-effect
       effect="simplify"
       id="path-effect1512"
       is_visible="true"
       lpeversion="1"
       steps="1"
       threshold="0.000515464"
       smooth_angles="360"
       helper_size="0"
       simplify_individual_paths="false"
       simplify_just_coalesce="false" /></defs><sodipodi:namedview
     pagecolor="#ffffff"
     bordercolor="#666666"
     borderopacity="1"
     objecttolerance="10"
     gridtolerance="10"
     guidetolerance="10"
     inkscape:pageopacity="0"
     inkscape:pageshadow="2"
     inkscape:window-width="1920"
     inkscape:window-height="1001"
     id="namedview44"
     showgrid="false"
     inkscape:pagecheckerboard="true"
     showguides="true"
     inkscape:guide-bbox="true"
     inkscape:zoom="32"
     inkscape:cx="33.962161"
     inkscape:cy="13.253967"
     inkscape:window-x="-9"
     inkscape:window-y="-9"
     inkscape:window-maximized="1"
     inkscape:current-layer="svg42"
     inkscape:document-rotation="0"
     fit-margin-top="0"
     fit-margin-left="0"
     fit-margin-right="0"
     fit-margin-bottom="0"><sodipodi:guide
       position="274.48263,263.54774"
       orientation="0,-1"
       id="guide873" /><sodipodi:guide
       position="20.695533,255.53571"
       orientation="1,0"
       id="guide875" /><sodipodi:guide
       position="264.79789,267.81032"
       orientation="1,0"
       id="guide877" /><sodipodi:guide
       position="266.02212,507.64605"
       orientation="0,-1"
       id="guide879" /><sodipodi:guide
       position="508.89621,259.15183"
       orientation="1,0"
       id="guide881" /><sodipodi:guide
       position="266.02212,19.445381"
       orientation="0,-1"
       id="guide883" /></sodipodi:namedview><path
     style="fill:#d9d9d9;stroke:#333333;stroke-width:1.76777"
     d=""
     id="path1500"
     transform="matrix(16.549313,0,0,16.549313,-264.78902,0)" /><path
     style="fill:#000000;stroke:none;stroke-opacity:1;stroke-linejoin:miter;stroke-linecap:butt;stroke-width:1px"
     d="m 31.949219,15.886719 c 0.0059,0.0044 0.01179,0.0088 0.01769,0.01316"
     id="path1510"
     inkscape:path-effect="#path-effect1512"
     inkscape:original-d="m 31.949219,15.886719 0.01769,0.01316" /><path
     style="fill:#c30a32;fill-opacity:1;stroke:none;stroke-width:1.25;stroke-opacity:1"
     d="m 31.337161,30.794865 c -1.445943,-0.06188 -3.088021,-0.418483 -4.517831,-0.981127 -2.861847,-1.126165 -5.344284,-3.135144 -7.082427,-5.731646 -1.736191,-2.593587 -2.615135,-5.701184 -2.453468,-8.674495 0.113758,-2.092203 0.601057,-3.910663 1.552706,-5.7942551 2.0657,-4.0886247 5.916835,-7.0638845 10.329145,-7.9799579 1.065467,-0.2212099 1.960895,-0.3005674 3.121472,-0.276641 1.170445,0.02413 2.015521,0.13385 3.097278,0.4021346 5.835599,1.4472763 10.398882,6.4933893 11.214733,12.4013394 0.106472,0.77101 0.139253,1.381262 0.119728,2.228841 -0.01922,0.834161 -0.06721,1.347373 -0.19484,2.083659 -0.681187,3.929598 -3.065701,7.553355 -6.467746,9.829066 -0.661301,0.44236 -1.100903,0.696855 -1.78125,1.031205 -2.170006,1.066428 -4.534628,1.564703 -6.9375,1.461877 z m 2.156511,-10.329961 c 2.092471,-2.352808 3.672512,-4.154857 3.705859,-4.226562 0.07677,-0.165084 0.077,-0.459089 4.81e-4,-0.625 -0.03466,-0.07515 -1.462959,-1.676624 -3.5814,-4.015625 C 31.680548,9.4578732 30.031445,7.6388485 29.953939,7.55544 L 29.813018,7.4037882 29.286027,7.9300954 c -0.289845,0.2894687 -0.526991,0.5371687 -0.526991,0.5504443 0,0.018192 5.12559,5.8619573 6.398049,7.2945153 l 0.199156,0.224213 -3.368915,3.818008 c -1.852903,2.099904 -3.368915,3.829687 -3.368915,3.843962 0,0.0332 1.144334,0.900277 1.191892,0.903107 0.0196,0.0012 1.677119,-1.843581 3.683369,-4.099441 z"
     id="path1523"
     transform="matrix(16.549313,0,0,16.549313,-264.78902,0)" /><path
     style="fill:#ffffff;stroke:none;stroke-width:0.03125;fill-opacity:1"
     d="m 31.040286,30.765667 c -2.467917,-0.220458 -4.665436,-0.951582 -6.6875,-2.224961 -3.269579,-2.058991 -5.649711,-5.273607 -6.60815,-8.924996 -0.344759,-1.313436 -0.475327,-2.432402 -0.445019,-3.813811 0.02548,-1.161333 0.141512,-2.064006 0.399748,-3.10981 0.450709,-1.825278 1.366744,-3.7362799 2.539345,-5.2974971 0.902309,-1.2013472 1.942246,-2.2353465 3.160182,-3.1421378 2.170849,-1.6162654 4.811786,-2.6252688 7.445297,-2.8445701 0.58088,-0.048372 2.216907,-0.020934 2.789847,0.046788 2.169069,0.2563869 4.3572,1.0606331 6.234375,2.291441 3.392503,2.2243637 5.777409,5.695765 6.56206,9.551546 0.216279,1.062801 0.249564,1.427239 0.250026,2.737558 4.35e-4,1.231124 -0.01585,1.470238 -0.158596,2.328125 -0.606642,3.645958 -2.693734,7.066647 -5.727182,9.386698 -0.354321,0.270993 -1.350176,0.93339 -1.707558,1.135789 -1.709886,0.968374 -3.589703,1.582751 -5.578125,1.823087 -0.402382,0.04864 -2.118088,0.08807 -2.46875,0.05675 z m -0.119417,-7.394513 c 3.197974,-3.55458 6.256361,-7.031091 6.310329,-7.173037 0.04905,-0.129022 0.033,-0.482614 -0.02685,-0.591408 -0.08667,-0.157546 -1.458758,-1.692345 -5.284939,-5.9116646 L 29.811453,7.3704969 29.282628,7.9042954 c -0.312643,0.315584 -0.524561,0.5533671 -0.518396,0.5816678 0.01063,0.048784 1.889115,2.2046818 4.77777,5.4833408 0.884212,1.003592 1.648152,1.872919 1.697643,1.931837 l 0.08998,0.107125 -0.0932,0.09941 c -0.122485,0.130654 -4.48026,5.076358 -5.690422,6.458145 -0.51901,0.592615 -0.938978,1.091834 -0.933262,1.109375 0.01599,0.04907 1.139651,0.891268 1.189127,0.891268 0.02398,0 0.527526,-0.537891 1.118993,-1.195313 z"
     id="path1525"
     transform="matrix(16.549313,0,0,16.549313,-264.78902,0)" /></svg>
